<?xml version="1.0" encoding="UTF-8"?> <svg xmlns="http://www.w3.org/2000/svg" xmlns:xlink="http://www.w3.org/1999/xlink" width="1800px" height="1800px" viewBox="0 0 1800 1800" version="1.1"><title>K 3</title><g id="K-3" stroke="none" stroke-width="1" fill="none" fill-rule="evenodd"><g id="mri-facebook" fill-rule="nonzero"><polygon id="Shape" fill="#000000" points="0 0 0 1800 1800 1800 1800 0"></polygon><path d="M905.363534,1492 L917.083161,1491.98501 C1008.80121,1491.82845 1097.92989,1490.4455 1143.90249,1487.83615 C1238.80958,1483.34048 1322.87628,1461.65747 1392.13971,1392.11535 C1461.40057,1322.83661 1483.07879,1238.75135 1487.8368,1143.82329 C1490.55785,1095.88383 1491.94558,1001.09077 1492,905.360653 L1492,893.637036 C1491.94558,797.906913 1490.55785,703.113863 1487.8368,655.174394 C1483.3447,560.246337 1461.66648,476.161077 1392.13971,406.882342 C1322.87628,337.606189 1238.80958,315.923177 1143.90249,311.164121 C1095.9736,308.442473 1001.13764,307.054433 905.363534,307 L893.63453,307 C797.860424,307.054433 703.02446,308.442473 655.095576,311.164121 C560.454392,315.657207 476.387699,337.340219 406.860933,406.618954 C337.334166,475.897689 315.919271,559.982949 311.161266,654.911006 C308.441484,702.850475 307.054396,797.706765 307,893.501391 L307,905.232909 C307.054396,1001.02754 308.441484,1095.88383 311.161266,1143.82329 C315.655942,1238.75135 337.334166,1322.83661 406.860933,1392.11535 C476.387699,1461.39408 560.191062,1483.07451 655.095576,1487.83615 C704.980741,1490.66757 805.680282,1492.05496 905.363534,1492 Z M899.498709,1385.28787 C873.636129,1385.28787 838.848471,1385.90681 800.719209,1385.94504 L793.050457,1385.94459 C705.670471,1385.84367 603.034506,1382.34827 550.165613,1361.48766 C498.335087,1340.86133 458.402082,1300.93091 437.51234,1248.83439 C406.571556,1170.8226 413.712134,985.709892 413.712134,899.501291 C413.712134,873.637936 413.093189,838.849737 413.054956,800.720095 L413.055407,793.051269 C413.156333,705.670471 416.651728,603.034506 437.51234,550.165613 C458.138668,498.335087 498.069091,458.402082 550.165613,437.51234 C628.177398,406.571556 813.290108,413.712134 899.498709,413.712134 C925.362064,413.712134 960.150263,413.093189 998.279905,413.054956 L1005.94873,413.055407 C1093.32953,413.156333 1195.96549,416.651728 1248.83439,437.51234 C1300.66491,458.138668 1340.59792,498.069091 1361.48766,550.165613 C1392.42844,628.177398 1385.28787,813.290108 1385.28787,899.501291 C1385.28787,985.709892 1392.42844,1171.08602 1361.48766,1248.83439 C1340.86133,1300.66491 1300.93091,1340.59792 1248.83439,1361.48766 C1170.8226,1392.42844 985.709892,1385.28787 899.498709,1385.28787 Z M1215.5,654 C1254.43261,654 1286,622.697209 1286,583.5 C1286,544.567394 1254.43261,513 1215.5,513 C1176.56739,513 1145,544.567394 1145,583.5 C1145,622.432606 1176.30279,654 1215.5,654 Z M899.49871,1204 C1067.49518,1204 1203,1068.49518 1203,900.50129 C1203,732.504821 1067.49518,597 899.49871,597 C731.504821,597 596,732.504821 596,900.50129 C596,1068.49518 731.504821,1204 899.49871,1204 Z M899.498709,1098 C790.834657,1098 702,1009.4287 702,900.501291 C702,791.571298 790.571298,703 899.498709,703 C1008.4287,703 1097,791.571298 1097,900.501291 C1097,1009.4287 1008.16534,1098 899.498709,1098 Z" id="i" fill="#FFFFFF"></path></g></g></svg> 